<?xml version="1.0" standalone="no"?><!DOCTYPE svg PUBLIC "-//W3C//DTD SVG 1.1//EN" "http://www.w3.org/Graphics/SVG/1.1/DTD/svg11.dtd"><svg class="icon" height="512" viewBox="0 0 1024 1024" version="1.1" xmlns="http://www.w3.org/2000/svg"><path d="M431.614182 9.115612c142.017504 0 257.157871 113.237017 257.157871 252.935709 0 139.687436-115.130134 252.956176-257.157871 252.956176-142.017504 0-257.147638-113.26874-257.147638-252.956176C174.445054 122.353652 289.596677 9.115612 431.614182 9.115612z" fill="" /><path d="M431.614182 6.077416c142.017504 0 257.157871 113.237017 257.157871 252.935709 0 139.687436-115.130134 252.956176-257.157871 252.956176-142.017504 0-257.147638-113.26874-257.147638-252.956176-0.021489-139.698692 115.130134-252.93571 257.147638-252.935709zM335.174736 596.311221h214.326366c183.455265 0 332.171332 146.271388 332.171332 326.721203v21.062711c0 71.112618-148.736533 73.827449-332.171332 73.827449H335.174736c-183.455265 0-332.191798-0.072655-332.191798-73.827449v-21.062711c-0.001023-180.448792 148.735509-326.721203 332.191798-326.721203z" fill="" /></svg>